HIERARCHY
ROOT Hips
{
	OFFSET 0.000000 97.167313 0.000000
	CHANNELS 6 Xposition Yposition Zposition Xrotation Yrotation Zrotation
	JOINT Spine
	{
		OFFSET 0.000000 13.784798 0.064400
		CHANNELS 3 Xrotation Yrotation Zrotation
		JOINT Spine1
		{
			OFFSET 0.000000 12.037903 0.404700
			CHANNELS 3 Xrotation Yrotation Zrotation
			JOINT Spine2
			{
				OFFSET 0.000000 17.795601 0.420200
				CHANNELS 3 Xrotation Yrotation Zrotation
				JOINT Neck
				{
					OFFSET 0.000000 39.131302 11.954600
					CHANNELS 3 Xrotation Yrotation Zrotation
					JOINT Head
					{
						OFFSET 0.000000 14.456192 15.627699
						CHANNELS 3 Xrotation Yrotation Zrotation
						JOINT HeadTop_End
						{
							OFFSET 0.000000 15.703506 7.603401
							CHANNELS 3 Xrotation Yrotation Zrotation
							End Site
							{
								OFFSET 0.000000 17.447403 0.000000
							}
						}
					}
				}
				JOINT LeftShoulder
				{
					OFFSET 17.399500 24.608795 1.168800
					CHANNELS 3 Xrotation Yrotation Zrotation
					JOINT LeftArm
					{
						OFFSET 18.980635 5.765305 1.818600
						CHANNELS 3 Xrotation Yrotation Zrotation
						JOINT LeftForeArm
						{
							OFFSET 49.290169 0.000000 0.000000
							CHANNELS 3 Xrotation Yrotation Zrotation
							JOINT LeftHand
							{
								OFFSET 31.562012 0.000000 0.000000
								CHANNELS 3 Xrotation Yrotation Zrotation
								JOINT LeftHandThumb1
								{
									OFFSET 6.133995 -4.388519 7.076070
									CHANNELS 3 Xrotation Yrotation Zrotation
									JOINT LeftHandThumb2
									{
										OFFSET 6.037666 -3.485840 3.485847
										CHANNELS 3 Xrotation Yrotation Zrotation
										JOINT LeftHandThumb3
										{
											OFFSET 6.496506 -3.750763 3.750761
											CHANNELS 3 Xrotation Yrotation Zrotation
											JOINT LeftHandThumb4
											{
												OFFSET 5.616882 -3.242905 3.242910
												CHANNELS 3 Xrotation Yrotation Zrotation
												End Site
												{
													OFFSET -1.254608 7.132141 0.375429
												}
											}
										}
									}
								}
								JOINT LeftHandPinky1
								{
									OFFSET 18.920792 -0.453171 -11.426712
									CHANNELS 3 Xrotation Yrotation Zrotation
									JOINT LeftHandPinky2
									{
										OFFSET 4.919586 0.000000 0.000000
										CHANNELS 3 Xrotation Yrotation Zrotation
										JOINT LeftHandPinky3
										{
											OFFSET 5.233047 0.000000 0.000000
											CHANNELS 3 Xrotation Yrotation Zrotation
											JOINT LeftHandPinky4
											{
												OFFSET 5.571716 0.000000 0.000000
												CHANNELS 3 Xrotation Yrotation Zrotation
												End Site
												{
													OFFSET -3.459808 4.342407 -0.466164
												}
											}
										}
									}
								}
								JOINT LeftHandRing1
								{
									OFFSET 22.726120 -0.094986 -6.500475
									CHANNELS 3 Xrotation Yrotation Zrotation
									JOINT LeftHandRing2
									{
										OFFSET 6.408615 0.000000 0.000000
										CHANNELS 3 Xrotation Yrotation Zrotation
										JOINT LeftHandRing3
										{
											OFFSET 6.150223 0.000000 0.000000
											CHANNELS 3 Xrotation Yrotation Zrotation
											JOINT LeftHandRing4
											{
												OFFSET 6.145386 0.000000 0.000000
												CHANNELS 3 Xrotation Yrotation Zrotation
												End Site
												{
													OFFSET -3.671402 4.923981 -0.202372
												}
											}
										}
									}
								}
								JOINT LeftHandMiddle1
								{
									OFFSET 23.373947 0.000000 0.000001
									CHANNELS 3 Xrotation Yrotation Zrotation
									JOINT LeftHandMiddle2
									{
										OFFSET 6.996567 0.000000 0.000000
										CHANNELS 3 Xrotation Yrotation Zrotation
										JOINT LeftHandMiddle3
										{
											OFFSET 7.015945 0.000000 0.000000
											CHANNELS 3 Xrotation Yrotation Zrotation
											JOINT LeftHandMiddle4
											{
												OFFSET 7.721573 0.000000 0.000000
												CHANNELS 3 Xrotation Yrotation Zrotation
												End Site
												{
													OFFSET -4.651108 6.158463 0.251582
												}
											}
										}
									}
								}
								JOINT LeftHandIndex1
								{
									OFFSET 21.310577 -0.490082 6.209344
									CHANNELS 3 Xrotation Yrotation Zrotation
									JOINT LeftHandIndex2
									{
										OFFSET 7.536453 0.000000 0.000000
										CHANNELS 3 Xrotation Yrotation Zrotation
										JOINT LeftHandIndex3
										{
											OFFSET 7.512344 0.000000 0.000000
											CHANNELS 3 Xrotation Yrotation Zrotation
											JOINT LeftHandIndex4
											{
												OFFSET 10.212402 0.000000 0.000001
												CHANNELS 3 Xrotation Yrotation Zrotation
												End Site
												{
													OFFSET -5.180801 8.690506 1.388433
												}
											}
										}
									}
								}
							}
						}
					}
				}
				JOINT RightShoulder
				{
					OFFSET -17.399500 24.608795 1.168800
					CHANNELS 3 Xrotation Yrotation Zrotation
					JOINT RightArm
					{
						OFFSET -18.980635 5.765305 1.818600
						CHANNELS 3 Xrotation Yrotation Zrotation
						JOINT RightForeArm
						{
							OFFSET -49.290169 0.000000 0.000000
							CHANNELS 3 Xrotation Yrotation Zrotation
							JOINT RightHand
							{
								OFFSET -31.562012 0.000000 0.000000
								CHANNELS 3 Xrotation Yrotation Zrotation
								JOINT RightHandThumb1
								{
									OFFSET -6.133995 -4.388519 7.076070
									CHANNELS 3 Xrotation Yrotation Zrotation
									JOINT RightHandThumb2
									{
										OFFSET -6.037666 -3.485840 3.485847
										CHANNELS 3 Xrotation Yrotation Zrotation
										JOINT RightHandThumb3
										{
											OFFSET -6.496506 -3.750763 3.750761
											CHANNELS 3 Xrotation Yrotation Zrotation
											JOINT RightHandThumb4
											{
												OFFSET -5.616882 -3.242905 3.242910
												CHANNELS 3 Xrotation Yrotation Zrotation
												End Site
												{
													OFFSET 1.254608 7.132141 0.375429
												}
											}
										}
									}
								}
								JOINT RightHandIndex1
								{
									OFFSET -21.310577 -0.490082 6.209344
									CHANNELS 3 Xrotation Yrotation Zrotation
									JOINT RightHandIndex2
									{
										OFFSET -7.536453 0.000000 0.000000
										CHANNELS 3 Xrotation Yrotation Zrotation
										JOINT RightHandIndex3
										{
											OFFSET -7.512344 0.000000 0.000000
											CHANNELS 3 Xrotation Yrotation Zrotation
											JOINT RightHandIndex4
											{
												OFFSET -10.212402 0.000000 0.000001
												CHANNELS 3 Xrotation Yrotation Zrotation
												End Site
												{
													OFFSET 5.180801 8.690506 1.388433
												}
											}
										}
									}
								}
								JOINT RightHandMiddle1
								{
									OFFSET -23.373947 0.000000 0.000001
									CHANNELS 3 Xrotation Yrotation Zrotation
									JOINT RightHandMiddle2
									{
										OFFSET -6.996567 0.000000 0.000000
										CHANNELS 3 Xrotation Yrotation Zrotation
										JOINT RightHandMiddle3
										{
											OFFSET -7.015945 0.000000 0.000000
											CHANNELS 3 Xrotation Yrotation Zrotation
											JOINT RightHandMiddle4
											{
												OFFSET -7.721573 0.000000 0.000000
												CHANNELS 3 Xrotation Yrotation Zrotation
												End Site
												{
													OFFSET 4.651108 6.158463 0.251582
												}
											}
										}
									}
								}
								JOINT RightHandRing1
								{
									OFFSET -22.726120 -0.094986 -6.500475
									CHANNELS 3 Xrotation Yrotation Zrotation
									JOINT RightHandRing2
									{
										OFFSET -6.408615 0.000000 0.000000
										CHANNELS 3 Xrotation Yrotation Zrotation
										JOINT RightHandRing3
										{
											OFFSET -6.150223 0.000000 0.000000
											CHANNELS 3 Xrotation Yrotation Zrotation
											JOINT RightHandRing4
											{
												OFFSET -6.145386 0.000000 0.000000
												CHANNELS 3 Xrotation Yrotation Zrotation
												End Site
												{
													OFFSET 3.671402 4.923981 -0.202372
												}
											}
										}
									}
								}
								JOINT RightHandPinky1
								{
									OFFSET -18.920792 -0.453171 -11.426712
									CHANNELS 3 Xrotation Yrotation Zrotation
									JOINT RightHandPinky2
									{
										OFFSET -4.919586 0.000000 0.000000
										CHANNELS 3 Xrotation Yrotation Zrotation
										JOINT RightHandPinky3
										{
											OFFSET -5.233047 0.000000 0.000000
											CHANNELS 3 Xrotation Yrotation Zrotation
											JOINT RightHandPinky4
											{
												OFFSET -5.571716 0.000000 0.000000
												CHANNELS 3 Xrotation Yrotation Zrotation
												End Site
												{
													OFFSET 3.459808 4.342407 -0.466164
												}
											}
										}
									}
								}
							}
						}
					}
				}
			}
		}
	}
	JOINT LeftUpLeg
	{
		OFFSET 19.899099 -7.885101 -3.429500
		CHANNELS 3 Xrotation Yrotation Zrotation
		JOINT LeftLeg
		{
			OFFSET 1.745560 -36.997807 10.304700
			CHANNELS 3 Xrotation Yrotation Zrotation
			JOINT LeftFoot
			{
				OFFSET -1.745558 -29.803308 -13.615400
				CHANNELS 3 Xrotation Yrotation Zrotation
				JOINT LeftToeBase
				{
					OFFSET 1.181900 -18.539904 15.226099
					CHANNELS 3 Xrotation Yrotation Zrotation
					JOINT LeftToe_End
					{
						OFFSET -0.863701 1.402801 16.534700
						CHANNELS 3 Xrotation Yrotation Zrotation
						End Site
						{
							OFFSET 0.000000 16.616566 0.000000
						}
					}
				}
			}
		}
	}
	JOINT RightUpLeg
	{
		OFFSET -19.899099 -7.885101 -3.429500
		CHANNELS 3 Xrotation Yrotation Zrotation
		JOINT RightLeg
		{
			OFFSET -1.745560 -36.997807 10.304700
			CHANNELS 3 Xrotation Yrotation Zrotation
			JOINT RightFoot
			{
				OFFSET 1.745558 -29.803308 -13.615400
				CHANNELS 3 Xrotation Yrotation Zrotation
				JOINT RightToeBase
				{
					OFFSET -1.181900 -18.539904 15.226099
					CHANNELS 3 Xrotation Yrotation Zrotation
					JOINT RightToe_End
					{
						OFFSET 0.863701 1.402801 16.534700
						CHANNELS 3 Xrotation Yrotation Zrotation
						End Site
						{
							OFFSET 0.000000 16.616566 0.000000
						}
					}
				}
			}
		}
	}
}
MOTION
Frames: 5
Frame Time: 0.033333
0.961439 89.597672 2.557488 -9.667959 6.021095 3.210512 15.911807 -4.966441 -0.890843 2.828927 -1.297233 -0.520220 2.839533 -1.291910 -0.480964 -10.214223 -0.289804 1.928839 0.642530 3.946485 -0.951178 -0.000000 0.000000 0.000000 1.783135 -2.817866 -5.367186 8.347195 -11.449691 -68.845950 0.000004 -33.539036 -0.000009 -23.608530 5.693668 2.838410 -3.469770 3.607316 7.883158 9.703656 22.223504 2.891174 -5.879067 9.699126 15.674844 0.000003 0.000002 -0.000004 0.902506 5.377883 -30.995409 1.110593 3.433619 -35.838139 1.110593 3.433626 -35.838163 -0.000000 0.000002 0.000001 0.689024 4.991711 -26.673301 0.865738 3.066784 -31.521456 0.865737 3.066781 -31.521446 -0.000000 0.000000 0.000003 0.362538 4.206377 -18.344230 0.474611 2.311791 -23.200226 0.474607 2.311793 -23.200218 0.000001 -0.000001 0.000001 0.162352 3.429605 -10.498210 0.209652 1.554735 -15.358575 0.209650 1.554729 -15.358570 -0.000001 0.000005 0.000002 0.806193 9.462911 15.261726 -2.962836 1.768754 67.176714 0.000006 20.011846 -0.000013 1.318006 -7.062429 -8.055881 -1.986170 -5.435666 -3.761579 8.766505 -20.697683 -3.062066 -5.504764 -5.510959 -14.718504 0.000001 0.000000 0.000005 2.057119 -6.108251 55.293571 5.419352 -4.594527 99.429372 3.163293 -4.411561 71.271275 -0.000000 0.000000 0.000001 2.592847 -6.426557 62.973436 4.946633 -4.648181 93.567335 3.098016 -4.388961 70.420589 -0.000002 0.000001 -0.000001 2.854988 -6.549364 66.538590 4.919153 -4.649805 93.228223 2.921290 -4.322227 68.093899 -0.000001 -0.000001 -0.000002 1.542110 -5.696817 47.168200 2.898967 -4.313208 67.797359 2.788738 -4.266696 66.323944 -0.000001 -0.000003 0.000003 -16.401945 6.287217 -0.982621 46.499648 -4.105631 -0.419542 5.887315 -0.621607 -0.777866 -15.828885 -1.140684 4.550628 -0.000000 -0.000000 0.000000 -4.259845 -7.082121 -0.844571 29.900331 5.466074 2.989081 -15.888642 1.867536 -7.418039 -1.006312 -0.000002 -0.000000 -0.000000 0.000000 -0.000000 
0.838117 91.253433 8.723188 -7.988859 2.284666 3.782876 13.768553 -3.219668 -2.460676 3.184388 -0.736639 -0.601236 3.188666 -0.715484 -0.567799 -9.629119 0.144220 1.371563 -0.250585 4.159726 -0.333411 -0.000000 -0.000000 -0.000000 1.824678 -1.802636 -6.090679 9.949134 -10.236420 -69.402584 0.000017 -30.263438 0.000035 -22.048248 2.143808 0.606560 -3.366934 4.055761 8.022751 9.873290 22.663645 2.947970 -5.822422 10.163247 15.785751 0.000001 0.000004 -0.000001 0.943894 5.445420 -31.771339 1.157433 3.497443 -36.613028 1.157431 3.497447 -36.613034 0.000000 0.000000 -0.000002 0.725156 5.062162 -27.448461 0.907617 3.133946 -32.295774 0.907616 3.133944 -32.295747 -0.000001 0.000000 -0.000000 0.388016 4.281299 -19.118147 0.506292 2.384298 -23.973558 0.506290 2.384296 -23.973578 0.000000 -0.000000 0.000004 0.177321 3.507300 -11.271135 0.231128 1.630882 -16.131228 0.231124 1.630876 -16.131237 -0.000000 -0.000000 -0.000001 0.743430 9.665600 14.554192 -3.574038 3.029637 67.112230 0.000002 20.590992 0.000012 1.681683 -6.916555 -7.610404 -1.986172 -5.435665 -3.761581 8.766508 -20.697678 -3.062068 -5.504764 -5.510967 -14.718510 0.000001 -0.000001 -0.000001 2.057124 -6.108249 55.293571 5.419346 -4.594526 99.429379 3.163296 -4.411562 71.271282 0.000000 0.000001 -0.000001 2.592849 -6.426558 62.973436 4.946633 -4.648179 93.567322 3.098016 -4.388963 70.420596 0.000002 -0.000000 -0.000001 2.854992 -6.549363 66.538596 4.919153 -4.649803 93.228223 2.921290 -4.322226 68.093899 0.000001 0.000002 -0.000005 1.542113 -5.696813 47.168200 2.898965 -4.313209 67.797352 2.788741 -4.266699 66.323937 -0.000001 -0.000001 -0.000001 -18.669357 5.282068 -1.309881 34.905805 -0.258691 -1.299369 5.162375 -0.464745 -2.097136 -3.550135 -0.105179 3.281270 -0.000001 0.000000 -0.000000 0.649214 -5.792389 -0.966362 25.071888 7.800737 2.601360 -17.295559 2.402978 -8.070306 -0.972871 -0.000003 0.000002 0.000000 0.000000 0.000000 
1.034163 92.140999 14.444562 -5.636281 -1.317115 3.716424 10.915640 -1.230450 -3.170610 3.483188 -0.149189 -0.538178 3.477815 -0.116405 -0.502321 -9.025284 0.547040 0.654505 -0.940691 4.244234 0.184096 0.000000 0.000000 -0.000000 1.865205 -1.049916 -6.903325 11.576189 -8.740033 -69.989119 0.000003 -26.459024 0.000013 -20.273646 -1.515564 -2.012503 -3.255231 4.548383 8.175189 10.059629 23.147050 3.008863 -5.761187 10.672925 15.907123 -0.000001 0.000005 0.000000 0.994367 5.525111 -32.695436 1.214334 3.572598 -37.535796 1.214325 3.572610 -37.535800 -0.000000 0.000001 0.000005 0.769426 5.145412 -28.371656 0.958666 3.213166 -33.217857 0.958665 3.213163 -33.217850 -0.000000 -0.000000 -0.000002 0.419674 4.370057 -20.039809 0.545295 2.470061 -24.894482 0.545293 2.470060 -24.894487 0.000000 -0.000001 0.000004 0.196517 3.599531 -12.191580 0.258034 1.721169 -17.051255 0.258038 1.721154 -17.051289 -0.000000 0.000000 -0.000004 0.679308 10.136048 13.660786 -4.099573 3.953072 66.993829 0.000012 20.728101 -0.000004 1.982437 -6.324643 -7.062461 -1.986175 -5.435664 -3.761584 8.766506 -20.697678 -3.062066 -5.504766 -5.510960 -14.718504 0.000002 -0.000002 0.000002 2.057117 -6.108251 55.293568 5.419342 -4.594526 99.429379 3.163297 -4.411562 71.271282 -0.000001 -0.000003 0.000001 2.592846 -6.426556 62.973429 4.946633 -4.648182 93.567328 3.098012 -4.388963 70.420596 -0.000001 0.000000 -0.000004 2.854987 -6.549363 66.538590 4.919155 -4.649810 93.228216 2.921290 -4.322227 68.093899 -0.000002 0.000002 -0.000005 1.542107 -5.696811 47.168197 2.898966 -4.313207 67.797359 2.788741 -4.266700 66.323944 -0.000001 -0.000004 0.000009 -22.658519 3.594342 -0.514952 27.049545 2.478183 -0.429846 7.599358 1.090010 -3.815414 -3.257396 0.000001 -0.000002 -0.000000 0.000001 -0.000000 4.035116 -5.015706 -1.730579 20.575433 8.980978 2.588365 -18.222711 4.692868 -7.633983 -1.108576 0.000004 0.000000 0.000000 0.000000 -0.000000 
1.208072 92.735275 19.876963 -3.167811 -4.615036 3.146282 7.934185 0.884975 -3.077479 3.763001 0.448463 -0.319409 3.748020 0.490863 -0.274146 -8.482256 0.823074 -0.049281 -1.471658 4.135336 0.448277 -0.000000 -0.000000 -0.000000 1.906459 -0.282969 -7.484912 12.311012 -7.177140 -70.958207 0.000005 -22.088553 0.000013 -18.006235 -4.995338 -4.632349 -3.140310 5.061282 8.332898 10.253635 23.650223 3.070653 -5.698524 11.203407 16.033056 0.000000 -0.000004 -0.000003 1.049949 5.609675 -33.686981 1.276719 3.652208 -38.525924 1.276718 3.652214 -38.525921 -0.000000 0.000001 -0.000000 0.818414 5.233909 -29.362273 1.014849 3.297232 -34.207230 1.014845 3.297229 -34.207210 -0.000000 -0.000000 0.000005 0.455226 4.464691 -21.028711 0.588667 2.561364 -25.882582 0.588665 2.561360 -25.882561 -0.000001 -0.000001 0.000004 0.218747 3.698130 -13.179177 0.288514 1.817520 -18.038386 0.288514 1.817518 -18.038393 -0.000000 0.000002 0.000003 0.622579 10.641563 12.912283 -4.418927 4.670832 66.556799 0.000007 20.871098 -0.000003 1.931084 -5.586041 -6.558520 -1.986171 -5.435663 -3.761582 8.766507 -20.697679 -3.062068 -5.504764 -5.510962 -14.718506 0.000003 0.000002 0.000004 2.057121 -6.108251 55.293574 5.419346 -4.594529 99.429379 3.163290 -4.411562 71.271282 -0.000000 -0.000002 0.000001 2.592849 -6.426557 62.973436 4.946631 -4.648179 93.567328 3.098013 -4.388962 70.420589 0.000000 -0.000000 -0.000001 2.854991 -6.549366 66.538590 4.919155 -4.649808 93.228216 2.921292 -4.322227 68.093899 -0.000002 0.000001 -0.000003 1.542109 -5.696814 47.168197 2.898968 -4.313205 67.797359 2.788738 -4.266695 66.323944 0.000002 -0.000001 -0.000001 -27.056007 1.770271 0.239512 21.093629 4.460884 0.999606 5.756387 3.646672 -3.337808 -4.081475 0.000002 0.000001 -0.000000 -0.000000 0.000000 7.542234 -4.814343 -2.508517 14.831209 8.966307 3.058939 -18.411764 7.575446 -6.434360 -1.352877 0.000001 0.000002 -0.000000 0.000000 0.000000 
1.277817 92.198219 24.868050 -1.664304 -7.625661 2.333317 5.765184 2.927868 -2.644936 4.452946 1.030365 0.018603 4.429378 1.089151 0.079748 -8.049929 0.966419 -0.612885 -2.552278 3.911939 0.427690 -0.000000 0.000000 0.000000 1.963019 0.788020 -8.109073 12.464093 -5.703665 -71.674933 0.000015 -19.400111 0.000004 -15.652114 -7.401520 -6.577558 -3.027592 5.570490 8.488477 10.446300 24.149684 3.130359 -5.637380 11.729877 16.157600 -0.000002 -0.000001 0.000002 1.106222 5.692148 -34.665338 1.339601 3.729663 -39.502758 1.339598 3.729670 -39.502758 -0.000001 -0.000001 0.000001 0.868247 5.320375 -30.339676 1.071687 3.379193 -35.183329 1.071684 3.379190 -35.183332 -0.000000 0.000001 -0.000000 0.491905 4.557436 -22.004417 0.632989 2.650677 -26.857383 0.632989 2.650674 -26.857385 0.000001 -0.000001 -0.000004 0.242358 3.794994 -14.153540 0.320204 1.912037 -19.012180 0.320199 1.912039 -19.012228 -0.000001 0.000001 0.000001 0.572921 11.121151 12.439398 -5.099733 5.435428 65.665405 0.000004 21.403501 0.000016 1.224157 -5.009656 -6.250006 -1.986171 -5.435666 -3.761583 8.766503 -20.697674 -3.062068 -5.504761 -5.510965 -14.718508 0.000000 0.000002 0.000005 2.057120 -6.108251 55.293571 5.419350 -4.594531 99.429379 3.163291 -4.411561 71.271282 -0.000000 -0.000003 0.000003 2.592848 -6.426557 62.973436 4.946637 -4.648183 93.567328 3.098014 -4.388963 70.420596 -0.000002 0.000002 -0.000004 2.854992 -6.549363 66.538590 4.919153 -4.649806 93.228230 2.921291 -4.322228 68.093899 -0.000001 0.000001 -0.000005 1.542109 -5.696817 47.168197 2.898965 -4.313207 67.797359 2.788740 -4.266695 66.323944 -0.000001 0.000002 -0.000003 -31.616724 0.044364 1.060456 17.378889 5.807693 2.192996 -2.576078 4.480593 -3.525232 -2.131915 -0.000000 0.000000 -0.000000 0.000000 0.000000 10.697924 -4.759542 -3.001986 11.793406 8.926229 3.310438 -19.979188 10.004826 -5.290423 -2.299914 -0.000005 0.000000 0.000000 0.000000 -0.000000 
